<svg width="21" height="22" viewBox="0 0 21 22" fill="none" xmlns="http://www.w3.org/2000/svg">
<g id="Account">
<path id="Vector" d="M10.5 19.75C5.66738 19.75 1.75 15.8326 1.75 11C1.75 6.16738 5.66738 2.25 10.5 2.25C15.3326 2.25 19.25 6.16738 19.25 11C19.25 15.8326 15.3326 19.75 10.5 19.75ZM6.13637 16.474C7.37498 17.4642 8.91422 18.0025 10.5 18C12.2238 18 13.8014 17.377 15.0211 16.3445C14.4513 15.7598 13.7699 15.2953 13.0174 14.9785C12.2649 14.6616 11.4565 14.4989 10.64 14.5C9.79351 14.499 8.95607 14.674 8.18078 15.0138C7.4055 15.3536 6.70931 15.8509 6.13637 16.474ZM4.914 15.2175C5.6494 14.4371 6.53684 13.8155 7.52162 13.3911C8.50641 12.9668 9.56767 12.7486 10.64 12.75C11.6739 12.7487 12.698 12.9516 13.6533 13.3471C14.6086 13.7426 15.4764 14.3229 16.2067 15.0548C16.9558 14.0005 17.3982 12.7593 17.4847 11.4689C17.5713 10.1785 17.2987 8.8894 16.6972 7.74452C16.0956 6.59965 15.1887 5.6438 14.077 4.98301C12.9652 4.32223 11.6922 3.98236 10.399 4.0011C9.10588 4.01983 7.8432 4.39645 6.75108 5.08916C5.65896 5.78188 4.78009 6.7636 4.21198 7.92543C3.64387 9.08725 3.40873 10.3837 3.53265 11.6711C3.65657 12.9584 4.1347 14.1863 4.914 15.2184V15.2175ZM10.5 11.875C9.57174 11.875 8.6815 11.5063 8.02513 10.8499C7.36875 10.1935 7 9.30326 7 8.375C7 7.44674 7.36875 6.5565 8.02513 5.90013C8.6815 5.24375 9.57174 4.875 10.5 4.875C11.4283 4.875 12.3185 5.24375 12.9749 5.90013C13.6313 6.5565 14 7.44674 14 8.375C14 9.30326 13.6313 10.1935 12.9749 10.8499C12.3185 11.5063 11.4283 11.875 10.5 11.875ZM10.5 10.125C10.9641 10.125 11.4092 9.94063 11.7374 9.61244C12.0656 9.28425 12.25 8.83913 12.25 8.375C12.25 7.91087 12.0656 7.46575 11.7374 7.13756C11.4092 6.80937 10.9641 6.625 10.5 6.625C10.0359 6.625 9.59075 6.80937 9.26256 7.13756C8.93437 7.46575 8.75 7.91087 8.75 8.375C8.75 8.83913 8.93437 9.28425 9.26256 9.61244C9.59075 9.94063 10.0359 10.125 10.5 10.125Z" fill="#F15A29"/>
</g>
</svg>
