<svg width="21" height="22" viewBox="0 0 21 22" fill="none" xmlns="http://www.w3.org/2000/svg">
<g id="Gift">
<path id="Vector" d="M13.125 2.25001C13.7395 2.24993 14.3432 2.41165 14.8754 2.71889C15.4075 3.02613 15.8494 3.46806 16.1567 4.00026C16.4639 4.53246 16.6255 5.13616 16.6254 5.75066C16.6253 6.36516 16.4634 6.9688 16.156 7.50088L20.125 7.50001V9.25001H18.375V18C18.375 18.2321 18.2828 18.4546 18.1187 18.6187C17.9546 18.7828 17.7321 18.875 17.5 18.875H3.5C3.26794 18.875 3.04538 18.7828 2.88128 18.6187C2.71719 18.4546 2.625 18.2321 2.625 18V9.25001H0.875V7.50001L4.844 7.50088C4.40988 6.74916 4.2706 5.86293 4.45321 5.01428C4.63582 4.16563 5.12728 3.41513 5.83217 2.90849C6.53706 2.40185 7.40507 2.17524 8.26765 2.27265C9.13024 2.37006 9.92585 2.78455 10.5 3.43563C10.8278 3.06234 11.2316 2.76343 11.6843 2.55895C12.137 2.35446 12.6282 2.24913 13.125 2.25001ZM9.625 9.25001H4.375V17.125H9.625V9.25001ZM16.625 9.25001H11.375V17.125H16.625V9.25001ZM7.875 4.00001C7.42089 3.99797 6.98377 4.17254 6.65599 4.48684C6.32821 4.80113 6.13544 5.23053 6.1184 5.68433C6.10136 6.13812 6.26139 6.58077 6.56468 6.91876C6.86797 7.25675 7.29077 7.4636 7.74375 7.49563L7.875 7.50001H9.625V5.75001C9.62502 5.33181 9.47528 4.92743 9.20289 4.61011C8.93051 4.29278 8.55349 4.08349 8.14013 4.02013L8.00537 4.00438L7.875 4.00001ZM13.125 4.00001C12.6835 3.99987 12.2583 4.16661 11.9345 4.46682C11.6108 4.76702 11.4125 5.17849 11.3794 5.61876L11.375 5.75001V7.50001H13.125C13.5665 7.50015 13.9917 7.3334 14.3155 7.0332C14.6392 6.73299 14.8375 6.32152 14.8706 5.88126L14.875 5.75001C14.875 5.28588 14.6906 4.84076 14.3624 4.51257C14.0342 4.18438 13.5891 4.00001 13.125 4.00001Z" fill="#F15A29"/>
</g>
</svg>
