<svg width="19" height="18" viewBox="0 0 19 18" fill="none" xmlns="http://www.w3.org/2000/svg">
<g id="Moon">
<path id="Vector" d="M8 5.25C7.99985 6.29298 8.31035 7.31237 8.89192 8.17816C9.47348 9.04395 10.2997 9.7169 11.2653 10.1112C12.2309 10.5055 13.2921 10.6032 14.3134 10.3919C15.3348 10.1807 16.2701 9.66999 17 8.925V9C17 13.1423 13.6423 16.5 9.5 16.5C5.35775 16.5 2 13.1423 2 9C2 4.85775 5.35775 1.5 9.5 1.5H9.575C9.07553 1.98834 8.67886 2.57172 8.40836 3.21576C8.13786 3.8598 7.99902 4.55146 8 5.25ZM3.5 9C3.49945 10.3387 3.94665 11.6392 4.77042 12.6945C5.59419 13.7497 6.74723 14.4992 8.04606 14.8236C9.34489 15.148 10.7149 15.0287 11.9381 14.4847C13.1614 13.9407 14.1675 13.0033 14.7965 11.8215C13.6771 12.0852 12.5088 12.0586 11.4026 11.744C10.2964 11.4295 9.28888 10.8376 8.47566 10.0243C7.66244 9.21112 7.07048 8.20361 6.75596 7.09738C6.44144 5.99116 6.41477 4.82292 6.6785 3.7035C5.71818 4.2151 4.91509 4.97825 4.35519 5.91123C3.7953 6.84422 3.49968 7.91191 3.5 9Z" fill="#F15A29"/>
</g>
</svg>
