<svg width="18" height="19" viewBox="0 0 18 19" fill="none" xmlns="http://www.w3.org/2000/svg">
<g id="Senai Coin">
<path id="Union" fill-rule="evenodd" clip-rule="evenodd" d="M9 2.13636C7.54361 2.13636 6.11993 2.56823 4.90899 3.37736C3.69804 4.18649 2.75423 5.33653 2.19689 6.68206C1.63955 8.02759 1.49373 9.50817 1.77786 10.9366C2.06199 12.365 2.7633 13.6771 3.79313 14.7069C4.82295 15.7367 6.13502 16.438 7.56343 16.7221C8.99183 17.0063 10.4724 16.8604 11.8179 16.3031C13.1635 15.7458 14.3135 14.802 15.1226 13.591C15.9318 12.3801 16.3636 10.9564 16.3636 9.5C16.3636 8.53299 16.1732 7.57545 15.8031 6.68206C15.4331 5.78866 14.8907 4.9769 14.2069 4.29312C13.5231 3.60935 12.7113 3.06694 11.8179 2.69689C10.9245 2.32683 9.96701 2.13636 9 2.13636ZM3.99987 2.01677C5.47991 1.02784 7.21997 0.5 9 0.5C10.1819 0.5 11.3522 0.732792 12.4442 1.18508C13.5361 1.63738 14.5282 2.30031 15.364 3.13604C16.1997 3.97177 16.8626 4.96392 17.3149 6.05585C17.7672 7.14778 18 8.3181 18 9.5C18 11.28 17.4722 13.0201 16.4832 14.5001C15.4943 15.9802 14.0887 17.1337 12.4442 17.8149C10.7996 18.4961 8.99002 18.6743 7.24419 18.3271C5.49836 17.9798 3.89471 17.1226 2.63604 15.864C1.37737 14.6053 0.520203 13.0016 0.172936 11.2558C-0.17433 9.50998 0.00389954 7.70038 0.685088 6.05585C1.36628 4.41131 2.51983 3.00571 3.99987 2.01677ZM7.27509 3.0596C7.63067 2.96426 7.99622 3.17524 8.09155 3.53082L8.48388 4.99409L10.4743 4.46042C10.8299 4.36508 11.1954 4.57605 11.2908 4.93163C11.3861 5.28722 11.1752 5.65276 10.8196 5.7481L8.82913 6.28176L9.47286 8.68271L10.1466 8.50208C10.8065 8.32516 11.5096 8.41762 12.1013 8.75913C12.6931 9.10064 13.1249 9.66323 13.3018 10.3231C13.4788 10.983 13.3863 11.6862 13.0448 12.2779C12.7033 12.8696 12.1407 13.3015 11.4808 13.4784L10.8071 13.659L11.1994 15.1223C11.2947 15.4779 11.0838 15.8434 10.7282 15.9388C10.3726 16.0341 10.0071 15.8231 9.91173 15.4675L9.51941 14.0043L7.00179 14.6793C6.64621 14.7746 6.28067 14.5636 6.18533 14.2081C6.08999 13.8525 6.30096 13.4869 6.65655 13.3916L9.17416 12.7166L8.53043 10.3156L7.85673 10.4963C7.19683 10.6732 6.49368 10.5807 5.90195 10.2392C5.31022 9.89771 4.8784 9.33513 4.70147 8.67523C4.52454 8.01533 4.617 7.31217 4.95851 6.72045C5.30002 6.12872 5.86261 5.69689 6.5225 5.51996L7.1962 5.33933L6.80388 3.87606C6.70854 3.52048 6.91951 3.15494 7.27509 3.0596ZM7.54145 6.62701L6.86775 6.80764C6.54937 6.89301 6.27793 7.10135 6.11316 7.38685C5.94839 7.67234 5.90378 8.0116 5.98914 8.32998C6.07451 8.64837 6.28285 8.9198 6.56835 9.08457C6.85384 9.24934 7.1931 9.29395 7.51148 9.20859L8.18518 9.02796L7.54145 6.62701ZM9.81811 9.97039L10.4618 12.3713L11.1355 12.1907C11.4539 12.1053 11.7254 11.897 11.8901 11.6115C12.0549 11.326 12.0995 10.9868 12.0141 10.6684C11.9288 10.35 11.7204 10.0786 11.4349 9.91378C11.1494 9.74901 10.8102 9.7044 10.4918 9.78976L9.81811 9.97039Z" fill="#26282B"/>
</g>
</svg>
